<svg width="15" height="15" viewBox="0 0 15 15" fill="none" xmlns="http://www.w3.org/2000/svg">
<path fill-rule="evenodd" clip-rule="evenodd" d="M5.77753 2.80606C5.10264 3.05372 4.48256 3.44637 3.96447 3.96447C3.17532 4.75361 2.67721 5.77938 2.5392 6.875H5.01104C5.05929 5.51658 5.26359 4.27796 5.58121 3.32503C5.64127 3.14483 5.70662 2.97106 5.77753 2.80606ZM7.5 1.25C5.8424 1.25 4.25268 1.90848 3.08058 3.08058C1.90848 4.25268 1.25 5.8424 1.25 7.5C1.25 9.1576 1.90848 10.7473 3.08058 11.9194C4.25268 13.0915 5.8424 13.75 7.5 13.75C9.1576 13.75 10.7473 13.0915 11.9194 11.9194C13.0915 10.7473 13.75 9.1576 13.75 7.5C13.75 5.8424 13.0915 4.25268 11.9194 3.08058C10.7473 1.90848 9.1576 1.25 7.5 1.25ZM7.5 2.5C7.5 2.5 7.50366 2.50011 7.50956 2.50191C7.51653 2.50403 7.53029 2.50927 7.5509 2.52193C7.59412 2.54846 7.6591 2.60257 7.73898 2.70393C7.90162 2.91032 8.07541 3.24769 8.23293 3.72028C8.50173 4.52675 8.69033 5.62686 8.73812 6.875H6.26188C6.30967 5.62686 6.49827 4.52675 6.76707 3.72028C6.92459 3.24769 7.09838 2.91032 7.26102 2.70393C7.3409 2.60257 7.40588 2.54846 7.4491 2.52193C7.46971 2.50927 7.48347 2.50403 7.49044 2.50191C7.49674 2.49999 7.5 2.5 7.5 2.5ZM5.01104 8.125H2.5392C2.67721 9.22062 3.17532 10.2464 3.96447 11.0355C4.48256 11.5536 5.10264 11.9463 5.77753 12.1939C5.70662 12.0289 5.64127 11.8552 5.58121 11.675C5.26359 10.722 5.05929 9.48342 5.01104 8.125ZM7.49986 12.5C7.49986 12.5 7.49642 12.4999 7.49044 12.4981C7.48347 12.496 7.46971 12.4907 7.4491 12.4781C7.40588 12.4515 7.3409 12.3974 7.26102 12.2961C7.09838 12.0897 6.92459 11.7523 6.76707 11.2797C6.49827 10.4732 6.30967 9.37314 6.26188 8.125H8.73812C8.69033 9.37314 8.50173 10.4732 8.23293 11.2797C8.07541 11.7523 7.90162 12.0897 7.73898 12.2961C7.6591 12.3974 7.59412 12.4515 7.5509 12.4781C7.53029 12.4907 7.51653 12.496 7.50956 12.4981C7.50899 12.4983 7.50843 12.4984 7.50791 12.4986C7.50267 12.5 7.49986 12.5 7.49986 12.5C8.09325 12.5 8.6759 12.3945 9.22247 12.1939C9.89736 11.9463 10.5174 11.5536 11.0355 11.0355C11.8247 10.2464 12.3228 9.22062 12.4608 8.125H9.98896C9.94071 9.48342 9.73641 10.722 9.41879 11.675C9.35873 11.8552 9.29338 12.0289 9.22247 12.1939M9.98896 6.875C9.94071 5.51658 9.73641 4.27796 9.41879 3.32503C9.35873 3.14483 9.29338 2.97106 9.22247 2.80606C9.89736 3.05372 10.5174 3.44637 11.0355 3.96447C11.8247 4.75361 12.3228 5.77938 12.4608 6.875H9.98896Z" fill="#E7E9EC"/>
<path d="M7.50791 12.4986C7.50267 12.5 7.49986 12.5 7.49986 12.5C8.09325 12.5 8.6759 12.3945 9.22247 12.1939L8.36117 12.347L7.50791 12.4986Z" fill="#E7E9EC"/>
</svg>
