<svg width="63" height="26" viewBox="0 0 63 26" fill="none" xmlns="http://www.w3.org/2000/svg">
<path d="M2.04544 20.7135V25.0771H1.27539V19.7749H2.26323C2.69362 20.6694 3.14476 21.8906 3.61923 23.4436C3.72554 23.7911 3.80591 24.0555 3.86295 24.2396C3.91221 24.0789 3.96925 23.9 4.03148 23.7029C4.55521 22.028 5.03747 20.7187 5.47305 19.7749H6.46867V25.0771H5.69084V20.6979C5.47305 21.4732 4.97006 22.9329 4.18445 25.0771H3.56479C3.31329 24.4911 3.02809 23.734 2.70658 22.8032C2.38508 21.8724 2.16211 21.1776 2.04544 20.7135Z" fill="white"/>
<path d="M15.9895 25.1782C15.2013 25.1782 14.5972 24.8697 14.1719 24.2474C13.8375 23.7574 13.6689 23.1585 13.6689 22.4558C13.6689 21.6287 13.8893 20.9546 14.3301 20.4283C14.7475 19.9253 15.3024 19.6738 15.9895 19.6738C16.7699 19.6738 17.3766 19.9953 17.807 20.6357C18.1414 21.1387 18.31 21.7428 18.31 22.4532C18.31 23.2751 18.0896 23.9389 17.6488 24.4471C17.2288 24.9345 16.6765 25.1782 15.9895 25.1782ZM15.9895 24.5093C16.508 24.5093 16.8995 24.2941 17.1614 23.8637C17.3792 23.5059 17.4881 23.0366 17.4881 22.4558C17.4881 21.7817 17.3455 21.2528 17.0603 20.8716C16.7984 20.519 16.4406 20.3453 15.9895 20.3453C15.4761 20.3453 15.0846 20.5709 14.8175 21.0246C14.5997 21.3928 14.4908 21.8699 14.4908 22.4558C14.4908 23.1247 14.6334 23.6433 14.9186 24.0063C15.1805 24.3407 15.5383 24.5093 15.9895 24.5093Z" fill="white"/>
<path d="M26.2827 25.0771H25.5127V19.7749H26.2827V22.0021H28.8366V19.7749H29.6144V25.0771H28.8366V22.6477H26.2827V25.0771Z" fill="white"/>
<path d="M38.4421 19.7775H39.1784L41.097 25.0797H40.3011L39.8992 23.8818H37.7291L37.3194 25.0797H36.5234L38.4421 19.7775ZM38.8102 20.7135L37.9469 23.2336H39.671L38.8102 20.7135Z" fill="white"/>
<path d="M48.7769 20.7135V25.0771H48.0068V19.7749H48.9947C49.4251 20.6694 49.8762 21.8906 50.3507 23.4436C50.457 23.7911 50.5374 24.0555 50.5944 24.2396C50.6437 24.0789 50.7007 23.9 50.7629 23.7029C51.2867 22.028 51.7689 20.7187 52.2045 19.7749H53.2001V25.0771H52.4223V20.6979C52.2045 21.4732 51.7015 22.9329 50.9159 25.0771H50.2962C50.0447 24.4911 49.7595 23.734 49.438 22.8032C49.1139 21.875 48.8936 21.1776 48.7769 20.7135Z" fill="white"/>
<path d="M61.5054 19.7775V25.0797H60.7354V19.7775H61.5054Z" fill="white"/>
<path d="M1.9653 3.70765V4.89253H1.27563V8.93204C1.27563 9.47911 1.356 9.93802 1.51935 10.3088C1.68788 10.7003 1.90826 11.027 2.17791 11.2914C2.44755 11.5559 2.76646 11.7529 3.12944 11.8878C3.49502 12.0226 3.87875 12.09 4.28322 12.09H9.23537V6.85524C9.23537 6.12668 9.35463 5.49146 9.59057 4.95216C9.83429 4.41287 10.1506 3.95655 10.5421 3.58579C10.9414 3.22021 11.4003 2.94797 11.9189 2.76648C12.4322 2.59017 12.9663 2.50201 13.5186 2.50201V2.51239H16.0802V8.94241C16.0802 9.46874 16.1606 9.92765 16.3239 10.3192C16.4925 10.7107 16.7129 11.0373 16.9825 11.3018C17.2521 11.5663 17.571 11.7607 17.934 11.8904C18.2996 12.0252 18.6833 12.0926 19.0878 12.0926C19.2563 12.0926 19.3989 12.1522 19.5182 12.2741C19.6375 12.3959 19.6945 12.5411 19.6945 12.7097C19.6945 12.8704 19.6349 13.013 19.5182 13.1349C19.3989 13.2567 19.2563 13.3164 19.0878 13.3164C18.533 13.3164 17.9963 13.2256 17.4777 13.0441C16.9644 12.8678 16.508 12.5956 16.1113 12.2248C15.712 11.8592 15.3957 11.4081 15.1598 10.8688C14.9239 10.3295 14.8046 9.69171 14.8046 8.95537V3.71024H13.5186C13.1141 3.71024 12.7278 3.77765 12.3648 3.91247C12.007 4.04729 11.6907 4.24435 11.4133 4.50103C11.1436 4.76549 10.9284 5.09217 10.7651 5.48368C10.6017 5.87518 10.5214 6.3341 10.5214 6.86042V13.3216H4.28322C3.72837 13.3216 3.19167 13.2308 2.67312 13.0493C2.15976 12.873 1.70343 12.6008 1.30674 12.23C0.90746 11.8644 0.591145 11.4133 0.355205 10.874C0.119265 10.3347 0 9.69689 0 8.96055V3.71543H1.9653V3.70765Z" fill="white"/>
<path d="M22.0951 7.92865C22.0951 7.17156 22.217 6.46633 22.4607 5.81296C22.7044 5.15181 23.0545 4.57881 23.5134 4.09137C23.9723 3.60653 24.5297 3.22021 25.1831 2.9376C25.8391 2.655 26.578 2.51239 27.3999 2.51239C28.284 2.51239 29.0567 2.66796 29.7178 2.97909C30.379 3.28244 30.926 3.6869 31.359 4.19508C31.7972 4.70067 32.1239 5.27886 32.3417 5.92704C32.5569 6.58042 32.6658 7.24934 32.6658 7.93123C32.6658 8.61313 32.5569 9.27687 32.3417 9.92506C32.1265 10.5655 31.7972 11.1411 31.359 11.6466C30.926 12.147 30.3816 12.5489 29.7178 12.8523C29.0567 13.1634 28.2788 13.319 27.3895 13.319C26.5002 13.319 25.7198 13.166 25.0509 12.8626C24.3897 12.5593 23.8401 12.1548 23.3993 11.6466C23.2308 11.4496 23.0778 11.2448 22.943 11.0296C22.7122 11.4963 22.4192 11.8981 22.0614 12.2352C21.6622 12.6008 21.2084 12.8704 20.6951 13.0441C20.1739 13.2256 19.6372 13.3164 19.085 13.3164V12.09C19.4894 12.09 19.8758 12.0252 20.2387 11.8981C20.5965 11.7633 20.9128 11.5637 21.1903 11.3018C21.4599 11.0373 21.6803 10.7107 21.8488 10.3192C22.0096 9.92765 22.0926 9.46874 22.0926 8.94241V7.92865H22.0951ZM31.1361 6.38077C30.9805 5.87519 30.7368 5.42664 30.4075 5.03514C30.0834 4.64363 29.6712 4.32731 29.1733 4.0836C28.6807 3.83988 28.0896 3.71543 27.4025 3.70765C26.7414 3.70765 26.1606 3.81913 25.6602 4.04211C25.1546 4.27027 24.732 4.57881 24.3949 4.96254C24.063 5.35405 23.8141 5.80259 23.6456 6.30818C23.4771 6.82154 23.3915 7.36083 23.3915 7.92865C23.3915 8.45497 23.4719 8.96834 23.6352 9.46874C23.796 9.96914 24.0423 10.4099 24.3742 10.7962C24.6983 11.1877 25.1131 11.5015 25.6187 11.7374C26.1243 11.9733 26.718 12.0926 27.3999 12.0926C28.0896 12.0926 28.6833 11.9707 29.1811 11.727C29.6815 11.4833 30.0912 11.167 30.4153 10.7755C30.7394 10.384 30.9779 9.94061 31.1335 9.44799C31.289 8.94759 31.3694 8.44201 31.3772 7.92865C31.3798 7.40232 31.2994 6.88636 31.1361 6.38077Z" fill="white"/>
<path d="M35.3286 3.05176e-05V8.93983C35.3286 9.46616 35.4142 9.92507 35.5827 10.3166C35.7434 10.7081 35.9612 11.0348 36.2309 11.2992C36.5083 11.5637 36.8246 11.7607 37.1824 11.8956C37.548 12.0226 37.9317 12.0874 38.3362 12.0874C38.5047 12.0874 38.6499 12.1471 38.7718 12.2689C38.8936 12.3908 38.9533 12.536 38.9533 12.7045C38.9533 12.8652 38.8936 13.0079 38.7718 13.1297C38.6499 13.2516 38.5047 13.3112 38.3362 13.3112C37.7839 13.3112 37.2498 13.2205 36.7365 13.039C36.2153 12.8627 35.759 12.593 35.3597 12.23C34.9682 11.8593 34.6519 11.4029 34.4082 10.8636C34.18 10.3244 34.053 9.68654 34.0322 8.9502V3.05176e-05H35.3286Z" fill="white"/>
<path d="M39.5214 3.79842V6.7049H38.3365V4.28586L38.3262 4.29623V2.94022C38.9795 2.65761 39.7237 2.51501 40.5533 2.51501C41.4297 2.51501 42.1997 2.67058 42.8609 2.98171C43.522 3.28506 44.0691 3.68953 44.5021 4.19771C44.9403 4.70329 45.267 5.28147 45.4847 5.92966C45.6999 6.57785 45.8088 7.24678 45.8088 7.93386V8.94762C45.8088 9.47395 45.8892 9.93287 46.0526 10.3244C46.2133 10.7159 46.4337 11.0426 46.7111 11.307C46.9808 11.5715 47.2997 11.7659 47.6627 11.8956C48.0282 12.0304 48.412 12.0978 48.8164 12.0978C48.9772 12.0978 49.1198 12.1574 49.2416 12.2793C49.3635 12.4012 49.4231 12.5438 49.4231 12.7045C49.4231 12.8808 49.3635 13.026 49.2416 13.1453C49.1198 13.2646 48.9746 13.3216 48.8061 13.3216C48.2538 13.3216 47.7197 13.2308 47.2063 13.0494C46.6852 12.873 46.2315 12.6034 45.84 12.2404C45.4822 11.9085 45.1892 11.5067 44.9584 11.0348C44.8236 11.2448 44.6706 11.447 44.5021 11.6415C44.0691 12.1419 43.5246 12.5464 42.8609 12.8575C42.2049 13.1608 41.4401 13.3164 40.5611 13.3242H40.5507H38.3339V12.0978H40.5507C41.2326 12.0978 41.8238 11.976 42.3216 11.7322C42.822 11.4885 43.2316 11.1722 43.5557 10.7807C43.8798 10.3892 44.1184 9.94324 44.2739 9.44284C44.4347 8.95022 44.5176 8.44722 44.5176 7.93386C44.5176 7.40753 44.4373 6.89157 44.2739 6.38339C44.1184 5.87781 43.8746 5.42926 43.5454 5.03775C43.2213 4.64625 42.809 4.32994 42.3112 4.08622C41.8186 3.8425 41.2275 3.71545 40.5404 3.70249C40.18 3.6973 39.8377 3.73101 39.5214 3.79842Z" fill="white"/>
<path d="M51.8237 7.92865C51.8237 7.17156 51.9455 6.46633 52.1892 5.81296C52.433 5.15181 52.783 4.57881 53.2419 4.09137C53.7008 3.60653 54.2582 3.22021 54.9116 2.9376C55.565 2.655 56.3065 2.51239 57.1284 2.51239C58.0125 2.51239 58.7852 2.66796 59.4463 2.97909C60.1075 3.28244 60.6546 3.6869 61.0875 4.19508C61.5257 4.70067 61.8524 5.27886 62.0702 5.92704C62.2854 6.58042 62.3943 7.24934 62.3943 7.93123C62.3943 8.61313 62.2854 9.27687 62.0702 9.92506C61.855 10.5655 61.5257 11.1411 61.0875 11.6466C60.6546 12.147 60.1101 12.5489 59.4463 12.8523C58.7852 13.1634 58.0074 13.319 57.118 13.319C56.2287 13.319 55.4483 13.166 54.7794 12.8626C54.1182 12.5593 53.5686 12.1548 53.1278 11.6466C52.9593 11.4496 52.8063 11.2448 52.6715 11.0296C52.4433 11.4963 52.1478 11.8981 51.79 12.2352C51.3907 12.6008 50.9369 12.8704 50.4236 13.0441C49.9024 13.2256 49.3657 13.3164 48.8135 13.3164V12.09C49.2179 12.09 49.6043 12.0252 49.9673 11.8981C50.3251 11.7633 50.6414 11.5637 50.9188 11.3018C51.1884 11.0373 51.4088 10.7107 51.5773 10.3192C51.7381 9.92765 51.8211 9.46874 51.8211 8.94241V7.92865H51.8237ZM60.8672 6.38077C60.7116 5.87519 60.4679 5.42664 60.1386 5.03514C59.8145 4.64363 59.4023 4.32731 58.9045 4.0836C58.4118 3.83988 57.8207 3.71543 57.1336 3.70765C56.4725 3.70765 55.8917 3.81913 55.3913 4.04211C54.8857 4.27027 54.4631 4.57881 54.126 4.96254C53.7941 5.35405 53.5452 5.80259 53.3767 6.30818C53.2082 6.82154 53.1226 7.36083 53.1226 7.92865C53.1226 8.45497 53.203 8.96834 53.3663 9.46874C53.5271 9.96914 53.776 10.4099 54.1053 10.7962C54.4294 11.1877 54.8442 11.5015 55.3498 11.7374C55.8554 11.9733 56.4491 12.0926 57.131 12.0926C57.8207 12.0926 58.4144 11.9707 58.9122 11.727C59.41 11.4833 59.8223 11.167 60.1464 10.7755C60.4705 10.384 60.709 9.94061 60.8646 9.44799C61.0201 8.94759 61.1005 8.44201 61.1083 7.92865C61.1083 7.40232 61.0279 6.88636 60.8672 6.38077Z" fill="white"/>
<path d="M6.39388 15.3102C6.27461 15.4321 6.11905 15.4917 5.922 15.4917C5.73273 15.4917 5.57976 15.4346 5.46049 15.3206C5.34122 15.2065 5.28418 15.0509 5.28418 14.8539C5.28418 14.6646 5.34381 14.509 5.46049 14.3872C5.57976 14.2653 5.73273 14.2057 5.922 14.2057C6.11645 14.2057 6.27461 14.2653 6.39388 14.382C6.51314 14.5013 6.57018 14.6542 6.57018 14.8435C6.57018 15.0328 6.51314 15.1883 6.39388 15.3102Z" fill="white"/>
<path d="M8.33363 15.305C8.21177 15.4243 8.05621 15.4813 7.86694 15.4813C7.67767 15.4813 7.5221 15.4243 7.40024 15.3102C7.27838 15.1961 7.21875 15.0431 7.21875 14.8539C7.21875 14.6568 7.27838 14.5013 7.40024 14.382C7.5221 14.2627 7.67767 14.2057 7.86694 14.2057C8.05621 14.2057 8.21177 14.2627 8.33363 14.3768C8.45549 14.4909 8.51512 14.6439 8.51512 14.8331C8.51512 15.0302 8.45549 15.1883 8.33363 15.305Z" fill="white"/>
</svg>
