<svg width="36" height="46" viewBox="0 0 36 46" fill="none" xmlns="http://www.w3.org/2000/svg">
<path d="M33.7782 8.62351C33.4489 8.50683 33.0937 8.44202 32.7229 8.44202H31.6677H29.5572V10.5525V31.406L27.4467 33.5165V10.5525V8.44202H25.3362H24.2809C23.9102 8.44202 23.555 8.50424 23.2257 8.62351C22.326 8.93982 21.613 9.65283 21.2967 10.5525C21.18 10.8818 21.1152 11.237 21.1152 11.6078V11.657V28.4425V28.4917C21.1152 29.0751 21.5871 29.547 22.1704 29.547C22.7538 29.547 23.2257 29.0751 23.2257 28.4917V28.4425V14.592V11.6052C23.2257 11.0218 23.6976 10.5499 24.2809 10.5499H25.3362V14.592V35.6244L19.0021 41.9585V9.49726C19.0021 8.91389 18.5302 8.44202 17.9469 8.44202C17.3635 8.44202 16.8916 8.91389 16.8916 9.49726V41.9611V44.0716V44.5097V44.9479L17.9469 46.0032L19.0021 44.9479L19.4403 44.5097L25.3362 38.6138L27.4467 36.5033L29.5572 34.3928L31.6677 32.2823L33.7782 30.1718L35.8887 28.0613V25.0745V11.6104C35.8887 11.2396 35.8265 10.8844 35.7072 10.5551C35.3909 9.65283 34.6779 8.93982 33.7782 8.62351ZM31.6651 29.2955V14.5946V10.5525H32.7203C33.3037 10.5525 33.7756 11.0244 33.7756 11.6078V14.5946V27.1824L31.6651 29.2955Z" fill="white"/>
<path d="M12.6659 8.62351C12.3366 8.50683 11.9788 8.44202 11.6107 8.44202H10.5554H8.44491V10.5525V33.5165L6.33441 31.406V16.0128V10.5525V8.44202H4.22392H3.16867C2.79791 8.44202 2.44271 8.50424 2.11343 8.62351C1.21375 8.93982 0.50074 9.65283 0.184425 10.5525C0.0677515 10.8818 0.00292969 11.237 0.00292969 11.6078V16.884H2.11343V14.5946V11.6078C2.11343 11.0244 2.5853 10.5525 3.16867 10.5525H4.22392V14.5946V16.0128V29.2955V32.2823L6.33441 34.3928L8.44491 36.5033L10.5554 38.6138L12.6659 40.7243L14.7764 42.8348V41.5384V39.848V36.0989V32.3601V28.4425V24.7037V19.2641V11.6078C14.7764 11.237 14.7142 10.8818 14.5949 10.5525C14.2786 9.65283 13.5656 8.93982 12.6659 8.62351ZM10.5554 35.627V14.5946V10.5525H11.6107C12.194 10.5525 12.6659 11.0244 12.6659 11.6078V14.5946V16.2799V21.7195V28.4425V29.3759V36.0989V37.7375L10.5554 35.627Z" fill="white"/>
<path d="M1.05525 6.33151H34.8336C35.417 6.33151 35.8888 5.85962 35.8888 5.27626C35.8888 4.69289 35.417 4.22101 34.8336 4.22101H1.05525C0.471882 4.22101 0 4.69289 0 5.27626C0 5.85962 0.471882 6.33151 1.05525 6.33151Z" fill="white"/>
<path d="M5.27596 2.11053H30.6097C31.1931 2.11053 31.6649 1.63865 31.6649 1.05528C31.6649 0.471909 31.1931 3.05176e-05 30.6097 3.05176e-05H5.27596C4.69259 3.05176e-05 4.2207 0.471909 4.2207 1.05528C4.2207 1.63865 4.69519 2.11053 5.27596 2.11053Z" fill="white"/>
<path d="M0 28.0588L2.1105 30.1693V27.1824V25.326H0V28.0588Z" fill="white"/>
<path d="M0 20.3038V23.2155H2.1105V18.9945H0V20.3038Z" fill="white"/>
</svg>
