<svg width="15" height="15" viewBox="0 0 15 15" fill="none" xmlns="http://www.w3.org/2000/svg">
<rect width="15" height="15" rx="7.5" fill="#277F68"/>
<path fill-rule="evenodd" clip-rule="evenodd" d="M12.9999 10V9.00001H1.99986L3.99986 10H9.99986C9.99986 10.552 10.6719 11 11.4999 11C12.3279 11 12.9999 10.552 12.9999 10ZM5.72986 3.90601C5.71786 3.90601 5.69986 3.91201 5.67686 3.92601C5.62286 3.96201 5.51686 4.07301 5.51286 4.20101C5.50986 4.27401 5.49586 4.27401 5.54286 4.32101C5.57686 4.36901 5.61286 4.36501 5.68086 4.32801C5.72086 4.29801 5.73386 4.28101 5.74786 4.23201C5.76386 4.15201 5.66086 4.27201 5.64786 4.18001C5.62486 4.09601 5.69086 4.06001 5.75286 3.98001C5.75486 3.94001 5.75486 3.91001 5.72986 3.90801V3.90601ZM6.73286 3.91101C6.71286 3.91501 6.68986 3.94101 6.65686 3.99901C6.63386 4.06101 6.53286 4.15501 6.60686 4.34901C6.66486 4.47201 6.68986 4.67101 6.66286 4.89401C6.62086 4.95701 6.61286 4.97901 6.55786 5.04201C6.48186 5.12501 6.39786 5.10401 6.33586 5.07201C6.27586 5.03201 6.22986 5.01201 6.20286 4.88601C6.20786 4.68601 6.21986 4.35401 6.18286 4.28401C6.12886 4.17601 6.03886 4.21401 6.00086 4.24701C5.81786 4.41701 5.72686 4.70001 5.67086 4.92701C5.62086 5.09101 5.56586 5.04301 5.52786 4.97701C5.43486 4.88901 5.42786 4.20701 5.31586 4.32001C5.13586 4.83401 5.41886 5.39701 5.61586 5.34201C5.75586 5.40201 5.84586 5.13201 5.90386 4.83701C5.94386 4.75401 5.97386 4.74401 5.99386 4.78701C5.98886 5.17901 6.02386 5.26701 6.12386 5.38501C6.34786 5.55901 6.53386 5.40701 6.54886 5.39301L6.72386 5.21901C6.76386 5.17901 6.81386 5.17501 6.86886 5.21101C6.92286 5.26101 6.91586 5.34401 7.02886 5.40101C7.12686 5.44101 7.33186 5.41101 7.37886 5.32801C7.44386 5.21801 7.45886 5.18001 7.48886 5.13801C7.53486 5.07801 7.61386 5.10501 7.61386 5.12401C7.60686 5.15901 7.56086 5.19401 7.59186 5.25401C7.64686 5.29401 7.65986 5.26801 7.69186 5.25901C7.80586 5.20501 7.89186 4.95701 7.89186 4.95701C7.89686 4.86501 7.84486 4.87201 7.81186 4.89101C7.76686 4.91801 7.76486 4.92701 7.72186 4.95401C7.66486 4.96201 7.55686 4.99901 7.50386 4.91601C7.44886 4.81601 7.44886 4.67801 7.40686 4.57601C7.40686 4.57001 7.33386 4.41901 7.40086 4.41001C7.43386 4.41601 7.50786 4.43501 7.51886 4.37401C7.55486 4.31401 7.44186 4.14401 7.36486 4.06001C7.29886 3.98701 7.20686 3.97801 7.11786 4.05201C7.05486 4.11001 7.06486 4.17401 7.05186 4.23501C7.03686 4.30501 7.03986 4.39201 7.11186 4.48501C7.17386 4.60701 7.28686 4.76501 7.24886 4.98701C7.24886 4.98701 7.18386 5.09301 7.06886 5.07901C7.01886 5.06901 6.94086 5.04901 6.89886 4.73901C6.86886 4.50601 6.90686 4.17901 6.80886 4.02601C6.78586 3.96901 6.76686 3.91301 6.73486 3.91601L6.73286 3.91101ZM6.41486 3.93701C6.38486 3.94001 6.35186 3.97501 6.32486 4.04201C6.30186 4.09401 6.27286 4.36201 6.27786 4.36201C6.25786 4.44201 6.36086 4.47601 6.40786 4.37401C6.47786 4.18401 6.47786 4.10401 6.48186 4.02601C6.47186 3.96601 6.44486 3.93601 6.41486 3.93801V3.93701ZM7.58786 3.95701C7.55786 3.96101 7.53286 3.97901 7.52386 4.02501C7.51086 4.13101 7.51786 4.19001 7.53586 4.27901C7.54886 4.33901 7.63586 4.43701 7.67786 4.49501C7.88086 4.76801 8.07786 5.04201 8.26586 5.32501C8.29586 5.53701 8.31586 5.74301 8.33086 5.94901C8.36286 6.39901 8.37086 6.95901 8.34386 7.43401C8.42786 7.43701 8.56386 7.29701 8.61086 7.09401C8.64086 6.81001 8.60086 6.23401 8.59686 6.06601L8.58686 5.82801C8.80686 6.18801 9.01886 6.56801 9.22686 6.98401C9.30386 6.94801 9.28686 6.51901 9.24286 6.45901C9.07486 6.09901 8.84286 5.74301 8.76986 5.60601C8.74286 5.55601 8.65186 5.41901 8.54486 5.26001C8.52486 5.03201 8.50286 4.84001 8.48886 4.78201C8.45386 4.54201 8.58686 4.80901 8.56886 4.67001C8.52486 4.43001 8.39286 4.26801 8.23686 4.04801C8.18686 3.97801 8.18686 3.96201 8.10986 4.06601C8.06486 4.17101 8.06486 4.25901 8.07986 4.34101C8.05786 4.31101 8.03286 4.27701 7.99686 4.23301L7.74186 4.01701C7.70686 3.99201 7.63886 3.95401 7.58786 3.95701ZM11.0639 3.99401C11.0489 3.99201 11.0339 3.99901 11.0139 4.02601C10.9789 4.05601 10.9419 4.11301 10.9439 4.18601C10.9509 4.31101 10.9739 4.44001 10.9819 4.56601L10.9919 4.61601C10.9779 4.60001 10.9659 4.58601 10.9589 4.58001C10.7119 4.32001 11.0719 4.53601 10.9109 4.33701C10.7759 4.18701 10.7359 4.14101 10.6209 4.05101C10.5609 4.01501 10.5269 3.94301 10.5079 4.06501C10.4999 4.17201 10.4919 4.29701 10.4979 4.38701C10.4979 4.43701 10.5509 4.53201 10.5959 4.58701C10.7599 4.79001 10.9279 5.00501 11.0959 5.22901C11.1319 5.68601 11.1409 6.10501 11.1759 6.56301C11.1719 6.75901 11.1119 7.01901 11.0559 7.04301C11.0559 7.04301 10.9679 7.09301 10.9099 7.03801C10.8669 7.02101 10.6979 6.75501 10.6979 6.75501C10.6109 6.67501 10.5529 6.69801 10.4919 6.75501C10.3219 6.91901 10.2439 7.22701 10.1289 7.43901C10.0989 7.48601 10.0159 7.52701 9.92286 7.43501C9.68586 7.11101 9.82286 6.65001 9.79486 6.76901C9.58486 7.00701 9.67686 7.40101 9.72486 7.48601C9.79486 7.62601 9.85086 7.71601 9.98486 7.78301C10.1099 7.87301 10.2049 7.81801 10.2589 7.75301C10.3829 7.62501 10.3849 7.29601 10.4429 7.23101C10.4829 7.11101 10.5859 7.13101 10.6359 7.18501C10.6859 7.25501 10.7419 7.30001 10.8129 7.33801C10.9289 7.44001 11.0669 7.45801 11.2029 7.36501C11.2959 7.31301 11.3569 7.24501 11.4109 7.11101C11.4709 6.95501 11.4409 6.13501 11.4279 5.67901L11.6879 6.05501C11.7239 6.45501 11.7409 6.85001 11.7279 7.22801C11.7199 7.30301 11.9909 7.00401 11.9879 6.86201C11.9879 6.73901 11.9899 6.62601 11.9879 6.52201C12.1209 6.73201 12.2479 6.94501 12.3679 7.16201C12.4429 7.12201 12.4179 6.69901 12.3709 6.64201C12.2449 6.43001 12.0829 6.20201 11.9579 6.02401C11.9329 5.80101 11.8999 5.53801 11.8839 5.45701C11.8609 5.33101 11.8369 5.14201 11.8009 4.99301C11.7909 4.93601 11.7609 4.75001 11.7709 4.73301C11.7849 4.69001 11.8409 4.73301 11.8679 4.68501C11.9079 4.64001 11.7259 4.16501 11.6329 4.03101C11.5999 3.97101 11.5389 3.99101 11.4649 4.09101C11.3949 4.15501 11.4209 4.30301 11.4469 4.44401C11.5149 4.80401 11.5769 5.16801 11.6249 5.53401C11.5349 5.39901 11.4249 5.23701 11.3169 5.08201L11.3029 5.01201C11.3029 5.00401 11.2889 4.71701 11.2759 4.64901C11.2729 4.62101 11.2659 4.61301 11.2959 4.61701C11.3259 4.64301 11.3299 4.64401 11.3489 4.65301C11.3809 4.65701 11.4089 4.60501 11.3889 4.55601L11.0989 4.02201C11.0889 4.00901 11.0749 3.99701 11.0589 3.99501L11.0639 3.99401ZM2.09386 4.00401C2.03886 4.00201 1.98086 4.03401 2.00386 4.09901C1.98986 4.13401 2.10786 4.25201 2.12886 4.31701C2.14586 4.36401 2.10886 4.51201 2.14886 4.52701C2.18386 4.54201 2.23286 4.42301 2.25086 4.31401C2.26086 4.25401 2.25386 4.04801 2.11386 4.00601C2.10686 4.00401 2.09986 4.00401 2.09186 4.00301L2.09386 4.00401ZM12.3139 4.00401C12.3009 4.00601 12.2859 4.02401 12.2639 4.07401C12.2089 4.16401 12.1899 4.32401 12.2119 4.46401C12.3419 5.35401 12.4419 6.21601 12.4619 7.00401C12.4499 7.08001 12.4459 7.12001 12.4119 7.21401C12.3339 7.31401 12.2479 7.43801 12.1669 7.49801C12.0869 7.55801 11.9149 7.61601 11.8589 7.66001C11.6789 7.76201 11.6789 7.88001 11.8229 7.88501C12.0709 7.85501 12.3649 7.83501 12.5669 7.53001C12.6209 7.44501 12.6849 7.21301 12.6869 7.07001C12.7069 6.24001 12.6769 5.42501 12.5519 4.82401C12.5439 4.76401 12.5179 4.63101 12.5279 4.61401C12.5429 4.57201 12.6239 4.61701 12.6529 4.57001C12.6959 4.52601 12.4429 4.20301 12.3549 4.06501C12.3369 4.03101 12.3249 4.00201 12.3109 4.00501L12.3139 4.00401ZM9.71086 4.01801C9.70086 4.02001 9.68686 4.03601 9.65886 4.07301C9.58886 4.29901 9.56486 4.48301 9.59186 4.62501C9.77186 5.55501 9.95186 6.40001 9.92386 7.28501C10.0079 7.28501 10.1059 7.09201 10.1479 6.90001C10.1709 6.63501 10.1319 6.47401 10.1259 6.32001C10.1189 6.16401 9.94986 4.90401 9.91586 4.78701C9.87386 4.56501 10.0799 4.75701 10.0579 4.62901C9.98586 4.46501 9.80786 4.22901 9.75386 4.08601C9.73386 4.04801 9.72986 4.01301 9.71386 4.01601L9.71086 4.01801ZM3.37686 4.03601C3.35686 4.04001 3.33386 4.05801 3.32686 4.08601C3.32186 4.10601 3.33486 4.13901 3.31686 4.14901C3.30686 4.15901 3.26886 4.15201 3.27086 4.09901C3.27086 4.08101 3.25786 4.06301 3.25086 4.05201C3.24286 4.04801 3.23786 4.04701 3.22386 4.04701C3.20686 4.04701 3.20686 4.05201 3.19786 4.06701C3.19386 4.08101 3.18786 4.09501 3.18786 4.11101C3.18586 4.13101 3.17786 4.13601 3.16486 4.13901C3.14886 4.13901 3.15186 4.14101 3.13986 4.13201C3.12986 4.12501 3.12186 4.12201 3.12186 4.10801C3.12186 4.09301 3.11786 4.06801 3.11386 4.06001C3.10686 4.05001 3.09586 4.04601 3.08386 4.04301C3.01786 4.04301 3.01386 4.12101 3.01686 4.14901C3.01186 4.15501 3.00986 4.28901 3.09986 4.32701C3.21986 4.38501 3.44786 4.36001 3.43986 4.16501C3.43986 4.14801 3.43486 4.09001 3.43286 4.07501C3.42086 4.04501 3.39786 4.03501 3.37586 4.03801L3.37686 4.03601ZM5.00286 4.03801C4.96086 4.04001 4.92286 4.05201 4.89286 4.06801C4.81286 4.14501 4.79286 4.26801 4.85686 4.34501C4.91686 4.37501 4.97986 4.43501 4.93886 4.47001C4.76486 4.65501 4.31186 4.96601 4.28886 5.02301V5.02901H4.29286V5.03101C4.31586 5.04601 4.59986 5.04601 4.63086 5.03101H4.63286C4.73086 4.99401 5.19286 4.46601 5.19286 4.46601C5.16886 4.44601 5.14686 4.43001 5.12286 4.40901C5.09686 4.38701 5.09986 4.36501 5.12286 4.34301C5.23686 4.27701 5.20086 4.13001 5.14086 4.06301C5.09086 4.04101 5.04486 4.03301 5.00286 4.03601V4.03801ZM9.25286 4.03801C9.24086 4.04101 9.22586 4.05801 9.20286 4.10801C9.14786 4.19801 9.11086 4.35301 9.11586 4.49801C9.23386 5.31801 9.26986 6.03501 9.34786 6.85501C9.35386 6.93501 9.34186 7.04901 9.28986 7.09501C9.09386 7.29901 8.81286 7.54901 8.50686 7.66501C8.47386 7.70201 8.58886 7.85901 8.73686 7.85901C8.98486 7.82901 9.20286 7.69101 9.40686 7.32401C9.45986 7.23901 9.55486 7.05601 9.55686 6.91401C9.57686 6.08201 9.51686 5.43401 9.39086 4.83401C9.38386 4.77401 9.38886 4.70401 9.39886 4.68801C9.41486 4.66801 9.46886 4.68801 9.49886 4.64101C9.54086 4.59701 9.38486 4.23801 9.29686 4.10101C9.27886 4.06601 9.26886 4.03801 9.25286 4.03901V4.03801ZM2.66886 4.06501C2.63486 4.06901 2.60286 4.09501 2.58686 4.13501C2.58186 4.26501 2.58086 4.39501 2.59686 4.51701C2.65686 4.73001 2.67386 4.91701 2.70286 5.13401C2.71286 5.42601 2.53486 5.26001 2.54286 5.11601C2.58286 4.92801 2.57286 4.63301 2.53686 4.55801C2.50686 4.48301 2.47486 4.46501 2.40486 4.47801C2.34986 4.47401 2.20686 4.62801 2.16686 4.88801C2.16686 4.88801 2.13286 5.02001 2.11886 5.13801C2.09886 5.27101 2.01086 5.36601 1.94886 5.12001C1.89586 4.94001 1.86386 4.50001 1.77486 4.60201C1.74886 4.94601 1.71886 5.55201 2.01086 5.61401C2.36486 5.64801 2.16886 5.01601 2.29686 4.90101C2.32186 4.84601 2.36686 4.84501 2.36986 4.91601V5.45301C2.36586 5.62701 2.47986 5.67901 2.56986 5.71501C2.66286 5.70801 2.72386 5.71101 2.75986 5.80101L2.80486 6.73101C2.80486 6.73101 3.01886 6.79101 3.02886 6.20801C3.03886 5.86501 2.95886 5.57801 3.00586 5.51101C3.00786 5.44501 3.09186 5.44101 3.14986 5.47401C3.24286 5.53901 3.28386 5.61901 3.42786 5.58701C3.64786 5.52701 3.77786 5.42101 3.78086 5.25301C3.77086 5.09301 3.75086 4.93301 3.68086 4.77301C3.69086 4.74501 3.64086 4.67001 3.65086 4.64101C3.68886 4.70101 3.74886 4.69701 3.76086 4.64101C3.72486 4.51801 3.66686 4.40101 3.57286 4.35101C3.49586 4.28101 3.38286 4.29601 3.34086 4.43801C3.32086 4.60201 3.40086 4.79601 3.52086 4.95501C3.54486 5.01701 3.58086 5.12001 3.56486 5.21301C3.50186 5.24901 3.43886 5.23301 3.38486 5.17801C3.38486 5.17801 3.21186 5.04801 3.21186 5.01801C3.25886 4.72301 3.22186 4.68801 3.19686 4.60801C3.17886 4.49401 3.12486 4.45801 3.08186 4.38001C3.03786 4.33301 2.97886 4.33301 2.95186 4.38001C2.87386 4.51301 2.90986 4.80001 2.96586 4.92701C3.00586 5.04501 3.06786 5.11901 3.03886 5.11901C3.01486 5.18401 2.96486 5.16901 2.92886 5.09201C2.87886 4.93201 2.86686 4.69601 2.86686 4.58901C2.85186 4.45701 2.83486 4.17401 2.74686 4.10201C2.72386 4.07001 2.69686 4.05901 2.66986 4.06201L2.66886 4.06501ZM3.91086 4.06501C3.89386 4.06901 3.87386 4.07901 3.85086 4.08501C3.77586 4.10801 3.70586 4.17301 3.72786 4.29901C3.81786 4.83901 3.87486 5.25201 3.96386 5.79201C3.97686 5.85601 3.92386 5.93901 3.85586 5.93201C3.73986 5.85201 3.71086 5.69201 3.51286 5.70001C3.36886 5.70001 3.20486 5.85801 3.18486 6.00801C3.16086 6.12801 3.15286 6.25801 3.18486 6.36201C3.28486 6.48201 3.40686 6.47001 3.51286 6.44201C3.59986 6.40701 3.67286 6.32201 3.70286 6.34201C3.72286 6.37501 3.70086 6.65601 3.29286 6.87201C3.04086 6.98601 2.84086 7.01201 2.73286 6.80801C2.66686 6.68001 2.73886 6.19201 2.57486 6.30401C2.08886 7.55601 3.71186 7.73001 3.89286 6.35601C3.90486 6.31601 3.93986 6.27801 3.96586 6.28801C3.97586 6.29301 3.98586 6.30801 3.98986 6.33601C3.95186 7.58001 2.73386 7.66601 2.52786 7.27401C2.47586 7.18201 2.46086 6.97601 2.45586 6.85401C2.44586 6.77901 2.42786 6.73601 2.40586 6.71901C2.35586 6.68201 2.28986 6.77901 2.27586 6.94601C2.25586 7.08101 2.26086 7.11801 2.26086 7.24801C2.32686 8.23101 3.89386 7.80801 4.14886 6.99801C4.27486 6.57801 4.14586 6.26101 4.18886 6.22201L4.19186 6.22001H4.19486L4.19986 6.21801C4.35586 6.38601 4.57386 6.23801 4.62186 6.18101C4.64186 6.15101 4.69386 6.13101 4.72986 6.17101C4.84986 6.25701 5.06386 6.21601 5.10786 6.06101C5.13386 5.91101 5.15586 5.75701 5.16086 5.59601C5.08086 5.62101 5.01686 5.63901 4.99086 5.66601C4.98486 5.67301 4.98086 5.68101 4.97886 5.68901L4.95886 5.82201C4.95886 5.82701 4.95686 5.83001 4.95486 5.83201C4.95186 5.83901 4.94486 5.84401 4.94086 5.84701C4.91286 5.86201 4.86386 5.85401 4.86086 5.81301C4.82386 5.64301 4.66886 5.62101 4.57486 5.88601C4.51186 5.93601 4.39486 5.94601 4.38486 5.87001C4.39986 5.69201 4.32786 5.66801 4.18486 5.75201L4.04686 4.71201C4.10686 4.70901 4.16086 4.75201 4.21686 4.68401C4.15686 4.50001 4.03186 4.12601 3.96086 4.09001H3.95886L3.94886 4.08001C3.94886 4.07801 3.94586 4.07701 3.94386 4.07601L3.93986 4.07001C3.93586 4.07001 3.93186 4.06801 3.92986 4.06701C3.92286 4.06501 3.91686 4.06501 3.90986 4.06501H3.91086ZM8.75286 4.06901C8.69086 4.06701 8.62286 4.10601 8.64886 4.18401C8.63286 4.22701 8.78186 4.37101 8.80586 4.44901C8.84886 4.56901 8.77286 4.68601 8.81786 4.70301C8.85986 4.72101 8.91786 4.57801 8.93786 4.44501C8.96386 4.33701 8.88786 4.11701 8.77786 4.07201L8.75286 4.07001V4.06901ZM4.97986 4.20001C5.00786 4.19801 5.04186 4.22401 5.05986 4.26001C5.07686 4.30001 5.06786 4.33701 5.03986 4.34401C5.00986 4.35101 4.97186 4.32601 4.95386 4.28601C4.93586 4.24601 4.94386 4.20901 4.97386 4.20201H4.97986V4.20001ZM11.9769 4.38201C11.9199 4.38001 11.8569 4.42201 11.8829 4.50701C11.8689 4.55301 12.0029 4.70901 12.0259 4.79501C12.0459 4.85501 11.9959 5.05101 12.0359 5.06901C12.0739 5.08901 12.1259 4.93301 12.1459 4.78901C12.1579 4.70901 12.0999 4.43401 12.0009 4.38501C11.9939 4.38301 11.9859 4.38101 11.9779 4.38101L11.9769 4.38201ZM8.10686 4.47801C8.11386 4.50101 8.11886 4.52401 8.12186 4.54801C8.13386 4.59801 8.14386 4.64801 8.15386 4.70001C8.10986 4.63801 8.07386 4.58801 8.05686 4.57001C7.95686 4.45001 8.05886 4.49201 8.10686 4.47801ZM8.99986 4.91601C8.97786 4.92001 8.95686 4.93901 8.94986 4.96901C8.94386 4.98701 8.95786 5.01901 8.93986 5.02901C8.92986 5.03901 8.88986 5.03301 8.89286 4.97901C8.89286 4.96101 8.87986 4.94201 8.87286 4.93201C8.86486 4.92701 8.85986 4.92501 8.84586 4.92501C8.82886 4.92501 8.82886 4.93001 8.81986 4.94501C8.81586 4.95901 8.80986 4.97301 8.80986 4.99001C8.80986 5.01001 8.80186 5.01601 8.78786 5.02001C8.77186 5.02001 8.77486 5.02001 8.76186 5.01301C8.75386 5.00301 8.74486 5.00101 8.74486 4.98701C8.74486 4.97201 8.74186 4.94901 8.73686 4.93901C8.72986 4.92901 8.71986 4.92601 8.70686 4.92201C8.64186 4.92201 8.63686 4.99801 8.64086 5.02601C8.63686 5.03201 8.63386 5.16801 8.72386 5.20601C8.84586 5.26301 9.07386 5.23601 9.06386 5.04201C9.06386 5.02501 9.05886 4.96701 9.05786 4.95201C9.04486 4.92201 9.02186 4.91201 9.00086 4.91501L8.99986 4.91601ZM4.92986 4.95601C4.91586 4.95601 4.89586 4.96001 4.87286 4.97401C4.76586 5.03201 4.72486 5.20401 4.79286 5.30401C4.85286 5.39401 4.95286 5.36101 4.96586 5.36101C5.07086 5.37501 5.13286 5.16501 5.13286 5.16501C5.13286 5.16501 5.13586 5.10501 5.01286 5.21701C4.95886 5.22701 4.95286 5.20701 4.93886 5.17701C4.92686 5.12401 4.92886 5.06701 4.95386 5.01401C4.96586 4.98101 4.95386 4.96001 4.92986 4.95801V4.95601ZM10.6829 4.98301C10.6229 4.98001 10.5599 5.01901 10.5429 5.10001C10.5429 5.14801 10.5649 5.17401 10.5609 5.21801C10.5559 5.24301 10.5309 5.25801 10.4689 5.23001C10.4789 5.22001 10.4289 5.15201 10.4289 5.15201C10.3819 5.12201 10.3189 5.15201 10.2769 5.18001C10.2539 5.22201 10.2369 5.29301 10.2629 5.36501C10.3309 5.49201 10.5659 5.70801 10.6779 5.71001C10.6799 5.59601 10.6909 5.44401 10.6979 5.35001C10.6999 5.31401 10.7079 5.27501 10.7429 5.26601C10.7769 5.25601 10.8359 5.30001 10.8359 5.26301C10.8299 5.19101 10.8159 5.08301 10.7759 5.03301C10.7539 5.00301 10.7189 4.98501 10.6839 4.98301H10.6829ZM5.91986 5.38001L5.91686 5.38301C5.91686 5.38301 5.91486 5.38301 5.91386 5.38501C5.90186 5.39501 5.88786 5.41501 5.85686 5.43501C5.80386 5.49501 5.79486 5.53801 5.79686 5.65801C5.80086 5.67101 5.89686 5.94101 5.97986 6.13001C6.03586 6.32701 6.08686 6.55301 6.04986 6.76601C5.91986 7.04801 5.65986 7.30101 5.40686 7.43901C5.27686 7.47901 5.16686 7.46501 5.13686 7.43701C5.06286 7.38701 5.06186 7.29701 5.06686 7.28301V7.28001C5.27886 7.13201 5.52186 7.01201 5.71186 6.61301C5.76786 6.46001 5.78586 6.36801 5.72986 6.13301C5.70786 6.04301 5.67986 5.97301 5.61986 5.90901H5.62186C5.65786 5.89201 5.75186 5.96101 5.76686 5.91901C5.74386 5.80501 5.66686 5.65401 5.58186 5.57601C5.50586 5.50601 5.42186 5.49901 5.35386 5.56201C5.27586 5.60601 5.25986 5.76201 5.29686 5.89801C5.33886 6.00001 5.45186 6.01801 5.53186 6.22501C5.53386 6.23901 5.55886 6.38001 5.51886 6.43801C5.48486 6.54001 5.06386 6.87201 5.03386 6.89201L5.03086 6.89401L5.02886 6.89601H5.02686H5.02486V6.89301C5.02286 6.88501 5.02486 6.86301 5.02486 6.83001C5.02186 6.76801 5.04786 6.62701 5.04486 6.60201V6.60001C4.90486 6.69001 4.85786 6.96501 4.83286 7.04701C4.47986 7.29001 4.07986 7.47101 3.84886 7.71701C3.72886 7.90701 4.67686 7.50301 4.78686 7.45401L4.78986 7.45701C4.81186 7.48001 4.81286 7.56001 4.87586 7.63301C4.97586 7.76601 5.18386 7.84801 5.38786 7.79701C5.72986 7.67401 5.92786 7.44101 6.12786 7.18201C6.15586 7.14201 6.20086 7.10801 6.24286 7.14001C6.37986 7.44801 6.77786 7.66801 7.29086 7.69001C7.41086 7.54601 7.35386 7.47501 7.30586 7.44501C7.29086 7.43501 7.05086 7.34101 7.01286 7.24801C6.98986 7.16201 7.04686 7.08501 7.16086 7.02801C7.49086 6.98801 7.81486 6.94301 8.12886 6.84201C8.13186 6.73601 8.19386 6.57901 8.23586 6.51001C8.26586 6.46301 8.28286 6.45801 8.28986 6.45201V6.45001H8.29186V6.44701V6.43701L8.23786 6.40501L7.18486 6.40101C7.17186 6.39601 7.16286 6.39101 7.15686 6.38601L7.15486 6.38301C7.15486 6.38301 7.15286 6.38301 7.15286 6.38101C7.15286 6.37901 7.15086 6.37901 7.15086 6.37901V6.38001V6.37801V6.37601V6.37401L7.15286 6.37101C7.15786 6.36501 7.17086 6.35801 7.18586 6.35101C7.43786 6.31801 7.88386 6.24501 7.91386 5.81601C7.90886 5.59201 7.81786 5.44601 7.54386 5.40601C7.34186 5.42101 7.19786 5.61601 7.22086 5.83001C7.21086 5.88701 7.24086 6.00001 7.18086 6.01301C6.79486 6.04901 6.37286 6.29101 6.35886 6.46501H6.35686H6.35486H6.35286C6.35286 6.46701 6.35086 6.46701 6.34986 6.46701H6.34586H6.34386H6.33986C6.31486 6.45901 6.28286 6.41701 6.28786 6.36001C6.27286 6.06001 6.17486 5.72001 6.02286 5.46001C5.96786 5.40501 5.94286 5.38301 5.92886 5.38001H5.92586H5.92286H5.92086H5.91986ZM6.92786 5.53801C6.90786 5.54201 6.88486 5.56001 6.87786 5.59001C6.87286 5.61001 6.88786 5.64201 6.86986 5.65201C6.85986 5.66201 6.81986 5.65601 6.82186 5.60201C6.82186 5.58501 6.80886 5.56601 6.80186 5.55501C6.79386 5.55001 6.78886 5.54901 6.77586 5.54901C6.75886 5.54901 6.75786 5.55301 6.74886 5.56701C6.74386 5.58101 6.73886 5.59701 6.73886 5.61201C6.73686 5.63201 6.72886 5.63801 6.71586 5.64001C6.69986 5.64001 6.70386 5.64301 6.69086 5.63501C6.68286 5.62701 6.67286 5.62301 6.67286 5.60901C6.67286 5.59401 6.66986 5.56901 6.66586 5.55901C6.65886 5.55201 6.64786 5.54901 6.63586 5.54501C6.56886 5.54501 6.56586 5.62001 6.56886 5.64901C6.56386 5.65401 6.56086 5.78901 6.65086 5.82701C6.77086 5.88501 7.06086 5.85101 6.99086 5.66401C6.99086 5.64701 6.98586 5.58901 6.98486 5.57401C6.97186 5.54401 6.94886 5.53401 6.92686 5.53701L6.92786 5.53801ZM10.9929 5.70501H10.9829C10.9829 5.70501 10.4209 6.10501 10.4079 6.11901C10.3519 6.16901 10.3799 6.34201 10.4079 6.32201C10.4479 6.33701 11.0129 5.95401 11.0019 5.90901C11.0269 5.91101 11.0389 5.71201 10.9919 5.70401L10.9929 5.70501ZM7.45886 5.76501C7.48086 5.76201 7.51086 5.77001 7.53886 5.78501C7.58186 5.81101 7.60886 5.84701 7.60386 5.87501V5.87901C7.60186 5.87901 7.60186 5.87901 7.60186 5.88101V5.88301C7.60186 5.88301 7.59986 5.88301 7.59986 5.88501C7.59986 5.88701 7.59686 5.88901 7.59486 5.89101C7.57486 5.91101 7.52886 5.90701 7.48486 5.88101C7.44286 5.85801 7.41786 5.82101 7.41986 5.79501V5.79201L7.42486 5.78201C7.42486 5.78201 7.42486 5.78001 7.42686 5.77901L7.43186 5.77301C7.43886 5.76801 7.44786 5.76301 7.45886 5.76301V5.76501ZM2.54086 5.86501C2.25086 5.87101 1.82386 6.24701 1.81286 6.45501L2.73286 6.01501C2.68286 5.93901 2.72986 5.87101 2.54086 5.86501ZM3.48386 5.99501C3.51186 5.99701 3.54186 6.01101 3.55786 6.05101C3.57186 6.08801 3.55786 6.12601 3.54086 6.14501V6.14801C3.52686 6.16401 3.48486 6.15801 3.45386 6.15801C3.41686 6.15601 3.39886 6.15001 3.37686 6.12001C3.36486 6.08501 3.39686 6.05201 3.41186 6.02801L3.41886 6.01801C3.42886 6.00801 3.44886 6.00001 3.46886 5.99801L3.48186 5.99601L3.48386 5.99501ZM10.8839 6.11201C10.8309 6.11801 10.7819 6.16701 10.8039 6.24501C10.7899 6.29101 10.8739 6.45201 10.8969 6.53701C10.9169 6.59701 10.8709 6.77001 10.9119 6.78701C10.9499 6.80701 11.0489 6.68701 11.0459 6.53301C11.0559 6.45301 11.0179 6.16301 10.9189 6.11501C10.9069 6.11201 10.8949 6.11101 10.8829 6.11201H10.8839ZM4.59986 6.39601C4.55386 6.39901 4.51286 6.42301 4.53186 6.48801C4.52886 6.53401 4.66186 6.59101 4.66886 6.69801C4.68686 6.74401 4.63886 6.88801 4.67886 6.90001C4.71486 6.91501 4.76486 6.80001 4.78386 6.69601C4.79386 6.63801 4.73786 6.43601 4.64386 6.39901C4.62886 6.39501 4.61386 6.39401 4.59886 6.39501L4.59986 6.39601ZM6.47986 6.65201H6.49186C6.60986 6.68401 6.78186 6.68801 6.93186 6.70201C7.05486 6.71201 7.11486 6.80601 7.00186 6.84701C6.88786 6.88501 6.77886 6.91701 6.77886 7.07901C6.79286 7.15901 6.78886 7.20101 6.77686 7.21901C6.77686 7.22201 6.77386 7.22401 6.77286 7.22501C6.77286 7.22501 6.77286 7.22701 6.77086 7.22701V7.22901H6.76786L6.76086 7.23201H6.75586C6.72886 7.23701 6.68986 7.21201 6.66086 7.19601C6.59086 7.14601 6.39586 7.02601 6.36786 6.76601C6.36386 6.70601 6.40786 6.65601 6.47786 6.65101L6.47986 6.65201ZM1.88586 6.85201C1.87886 6.85201 1.86586 6.87401 1.84586 6.89901C1.67186 7.17401 1.65586 7.58501 1.75186 7.70901C1.80186 7.76601 1.88586 7.79201 1.94786 7.77401C2.05786 7.72701 2.10486 7.50601 2.07786 7.42601C2.04286 7.36901 2.01386 7.36001 1.97786 7.40801C1.90086 7.56301 1.86786 7.45601 1.86286 7.36801C1.85086 7.20501 1.86686 7.05301 1.88486 6.93301C1.89486 6.87301 1.89486 6.85001 1.88486 6.85001L1.88586 6.85201ZM7.78286 7.21401C7.76986 7.21401 7.75686 7.21601 7.74286 7.22401C7.73986 7.22401 7.61886 7.30401 7.57986 7.36201C7.55586 7.38001 7.55986 7.39501 7.56586 7.42701C7.58386 7.47001 7.61586 7.45701 7.65386 7.43701C7.70386 7.42901 7.72686 7.46201 7.72386 7.52101C7.70086 7.59601 7.73386 7.62301 7.73386 7.62801C7.73386 7.63201 7.78086 7.67301 7.83686 7.64101C7.95386 7.59601 8.02686 7.55101 8.19186 7.51601C8.23486 7.51601 8.23186 7.40001 8.16386 7.39601C8.07386 7.40001 7.99386 7.40601 7.90386 7.47601C7.84886 7.48801 7.83986 7.45401 7.82686 7.42401C7.81286 7.35001 7.85886 7.29801 7.84886 7.24201C7.85086 7.24501 7.82086 7.21801 7.78186 7.21601L7.78286 7.21401ZM11.5589 7.35401L11.4789 7.36201C11.4429 7.36901 11.4309 7.38501 11.4239 7.42901C11.4269 7.49401 11.4669 7.49101 11.5089 7.51701C11.5329 7.54701 11.5489 7.57501 11.5069 7.62701C11.4669 7.66201 11.4399 7.68201 11.3999 7.71701C11.3829 7.74901 11.3699 7.79701 11.4279 7.81301C11.5329 7.84301 11.7759 7.68501 11.7759 7.68301C11.8159 7.65301 11.8019 7.59601 11.7989 7.59601C11.7749 7.57001 11.7229 7.58601 11.6889 7.58101C11.6719 7.58101 11.6189 7.57301 11.6429 7.52501C11.6649 7.49501 11.6729 7.47801 11.6879 7.44101C11.7029 7.40501 11.6879 7.38101 11.6299 7.36101C11.5999 7.35501 11.5799 7.35301 11.5569 7.35401H11.5589ZM10.1059 11.214C10.3759 11.227 10.6279 11.217 10.8959 11.23C10.9399 11.266 10.9189 11.35 10.8909 11.364L10.8859 11.366H10.8829H10.8789L10.6529 11.36V11.347C10.6309 11.285 10.4809 11.289 10.4449 11.337V11.34C10.4429 11.34 10.4419 11.343 10.4419 11.344L10.4399 11.349V11.361C10.3199 11.376 10.2149 11.357 10.0969 11.353C10.0619 11.31 10.0669 11.233 10.1069 11.213L10.1059 11.214Z" fill="white"/>
</svg>
